# xmcd
#
# Track frame offsets:
#	150
#	31720
#	45292
#	65227
#	84475
#	101207
#	111302
#	140520
#	157207
#	171852
#	198595
#	222205
#	245100
#	268857
#	291550
#	304070
#
# Disc length: 4413 seconds
#
# Revision: 0
# Processed by: cddbd v1.4PL0 Copyright (c) Steve Scherf et al.
# Submitted via: audiograbber 1.80
#
DISCID=fc113b10
DTITLE=Lightnin' Hopkins - Good Rockin' Tonight
DYEAR=1900
DGENRE=
TTITLE0=Big Black Cadillac Blues
TTITLE1=Stool Pigeon Blues
TTITLE2=Leave Jike Mary Alone
TTITLE3=Don't Treat That Man the Way You Treat Me
TTITLE4=Gonna Pull a Party
TTITLE5=Coffee House Blues
TTITLE6=You Treat Po Lightnin' Wrong
TTITLE7=Short Haired Woman
TTITLE8=New Car Blues
TTITLE9=I Heard My Children Crying
TTITLE10=I've Been Buked and I've Been Scorned
TTITLE11=I'm Gonna Meet My Baby Somewhere
TTITLE12=Early Morning Blues
TTITLE13=Get off My Toe
TTITLE14=The Foot Race Is On
TTITLE15=There's Good Rockin' Tonight
EXTD=
EXTT0=
EXTT1=
EXTT2=
EXTT3=
EXTT4=
EXTT5=
EXTT6=
EXTT7=
EXTT8=
EXTT9=
EXTT10=
EXTT11=
EXTT12=
EXTT13=
EXTT14=
EXTT15=
PLAYORDER=
